<?xml version="1.0" encoding="UTF-8"?>
<svg version="1.1" xmlns="http://www.w3.org/2000/svg" width="982" height="348">
<path d="M0 0 C324.06 0 648.12 0 982 0 C982 114.84 982 229.68 982 348 C657.94 348 333.88 348 0 348 C0 233.16 0 118.32 0 0 Z " fill="#FDFEFE" transform="translate(0,0)"/>
<path d="M0 0 C0 0.66 0 1.32 0 2 C1.175625 2.37125 1.175625 2.37125 2.375 2.75 C5 4 5 4 6.3125 5.75 C7.24013137 8.78588449 7.44356634 10.83166896 7 14 C6.18144531 14.87785156 5.36289063 15.75570312 4.51953125 16.66015625 C1.27744986 20.38713724 1.25836184 23.77534411 1.25 28.5625 C1.14645948 33.14615934 0.98104081 37.50583837 0 42 C0.61407715 41.98428955 1.2281543 41.9685791 1.86083984 41.95239258 C4.69879589 41.88923806 7.53660333 41.85075823 10.375 41.8125 C11.34050781 41.78736328 12.30601562 41.76222656 13.30078125 41.73632812 C21.15806345 41.65722797 28.3519146 42.56794307 35 47 C35 47.66 35 48.32 35 49 C35.72316406 49.25007813 36.44632812 49.50015625 37.19140625 49.7578125 C46.86782733 54.03750917 52.21128701 62.51541781 56 72 C56.34836914 72.85843506 56.69673828 73.71687012 57.05566406 74.60131836 C58.25146373 78.90502239 58.28702339 82.82954607 58.265625 87.2734375 C58.26753845 88.15601227 58.2694519 89.03858704 58.27142334 89.94790649 C58.2727798 91.80869839 58.26912115 93.66949992 58.26074219 95.53027344 C58.25006063 98.35894352 58.26064263 101.18697485 58.2734375 104.015625 C58.27211531 105.83073055 58.26955169 107.64583571 58.265625 109.4609375 C58.26967346 110.29764984 58.27372192 111.13436218 58.27789307 111.99642944 C58.18589411 123.68367751 54.04518153 135.60784122 45.9609375 144.26953125 C34.30358757 154.55679424 34.30358757 154.55679424 27.21484375 155.5078125 C26.15394531 155.67023438 25.09304687 155.83265625 24 156 C23.34 157.32 22.68 158.64 22 160 C3.19 160 -15.62 160 -35 160 C-35.33 158.68 -35.66 157.36 -36 156 C-37.299375 155.79375 -38.59875 155.5875 -39.9375 155.375 C-49.91142918 153.09613668 -57.04209734 146.02870766 -63 138 C-68.32532909 128.8005264 -70.29939952 119.35916612 -70.37109375 108.828125 C-70.38012222 107.98384949 -70.3891507 107.13957397 -70.39845276 106.26971436 C-70.41285985 104.49494925 -70.42181801 102.72013218 -70.42553711 100.9453125 C-70.4374117 98.26989542 -70.48667148 95.59680582 -70.53710938 92.921875 C-70.66787876 79.05758215 -68.58047346 67.68954305 -59 57 C-58.21496094 56.07767578 -58.21496094 56.07767578 -57.4140625 55.13671875 C-53.47951706 50.8234964 -49.33497135 48.36127092 -44.0390625 45.9453125 C-42.05103405 45.16573745 -42.05103405 45.16573745 -41 44 C-34.48665306 42.91190583 -28.09062403 42.88128077 -21.5 42.9375 C-20.48679688 42.94201172 -19.47359375 42.94652344 -18.4296875 42.95117188 C-15.95306173 42.96285407 -13.47656343 42.97923418 -11 43 C-10.91267274 39.10430865 -10.85949815 35.20887018 -10.8125 31.3125 C-10.78736328 30.20970703 -10.76222656 29.10691406 -10.73632812 27.97070312 C-10.72182617 26.3706543 -10.72182617 26.3706543 -10.70703125 24.73828125 C-10.6913208 23.75899658 -10.67561035 22.77971191 -10.65942383 21.77075195 C-11.05889707 18.52084386 -12.25696339 16.73641917 -14 14 C-15.03959827 7.45053092 -15.03959827 7.45053092 -12.67578125 4.15234375 C-8.63847115 0.31463101 -5.67787363 -0.69524983 0 0 Z " fill="#75798A" transform="translate(199,69)"/>
<path d="M0 0 C2.24616496 1.68367356 4.31230829 3.44872933 6.37109375 5.35546875 C7.00660156 5.91234375 7.64210938 6.46921875 8.296875 7.04296875 C18.01427835 16.03208705 21.2685238 27.6646679 22.05859375 40.60546875 C21.82813468 51.81730255 15.91306748 62.77445953 8.14453125 70.75390625 C-1.62876186 79.58000795 -12.72767339 84.88558489 -26.05859375 84.5390625 C-40.63508759 83.49788437 -50.65933633 76.99201984 -60.44921875 66.3828125 C-69.54587204 55.25198297 -69.95214602 42.13590355 -68.62890625 28.35546875 C-66.28776329 16.50507656 -58.15027279 7.38314405 -48.62890625 0.35546875 C-33.61983258 -9.3562848 -15.29556471 -9.56825073 0 0 Z " fill="#0C0C0E" transform="translate(636.62890625,146.64453125)"/>
<path d="M0 0 C0.92844727 0.00757324 1.85689453 0.01514648 2.81347656 0.02294922 C9.73317492 0.18920644 15.54961058 1.05797598 21.6875 4.4375 C22.46996094 4.86160156 23.25242187 5.28570312 24.05859375 5.72265625 C34.40667014 11.9873433 42.13811 22.06382823 45.328125 33.79296875 C47.1921659 47.5098784 45.89062984 59.73263864 37.875 71.3125 C30.2799461 81.02580746 20.28669365 88.03198513 7.88671875 90.19140625 C-4.81878479 91.61315887 -15.87828907 88.88798564 -26.3125 81.4375 C-27.37791016 80.68339844 -27.37791016 80.68339844 -28.46484375 79.9140625 C-37.23405987 73.01314386 -42.70209667 62.40288265 -44.3125 51.4375 C-45.30627624 36.9956872 -42.6331714 25.37556034 -33.125 14.1875 C-23.98669894 4.51790237 -13.16969672 -0.15003452 0 0 Z " fill="#0B0B0D" transform="translate(513.3125,140.5625)"/>
<path d="M0 0 C10.43541713 8.47307193 10.43541713 8.47307193 11 13 C-5.8671024 27 -5.8671024 27 -9 27 C-9.53625 26.278125 -10.0725 25.55625 -10.625 24.8125 C-15.86456365 18.60775357 -23.08651757 15.40611465 -31 14 C-42.94390678 12.99781012 -52.62576345 14.22126656 -61.9609375 22.0390625 C-70.3311284 30.08855643 -74.08491925 38.62879368 -74.3125 50.1875 C-74.34183808 56.86924859 -73.18962599 62.12086359 -70 68 C-69.443125 69.03125 -68.88625 70.0625 -68.3125 71.125 C-61.95680572 79.02667397 -54.83252574 84.83287816 -44.70703125 86.5625 C-33.27328377 87.75948992 -23.49304182 85.59718462 -14 79 C-13.03367162 78.07074304 -12.091907 77.11462468 -11.1875 76.125 C-10.465625 75.42375 -9.74375 74.7225 -9 74 C-5.73463401 74.33975636 -3.67350616 75.75820092 -1.109375 77.72265625 C-0.40039062 78.26083984 0.30859375 78.79902344 1.0390625 79.35351562 C1.76867187 79.91748047 2.49828125 80.48144531 3.25 81.0625 C3.99507813 81.63033203 4.74015625 82.19816406 5.5078125 82.78320312 C7.34300661 84.18312683 9.17344687 85.58883221 11 87 C9.60726138 93.61485927 3.90054495 97.8930895 -1.3984375 101.7421875 C-11.63790065 108.13770979 -21.97430423 111.88310968 -34 113 C-35.21042969 113.12568359 -35.21042969 113.12568359 -36.4453125 113.25390625 C-52.84431071 114.11554853 -67.95208377 107.08660541 -80.3125 96.875 C-91.69846979 85.99465715 -99.73121039 70.48325374 -100.16796875 54.6953125 C-100.33000337 38.61381166 -100.33000337 38.61381166 -98 32 C-97.67 31.06027344 -97.34 30.12054688 -97 29.15234375 C-89.9681635 10.85569021 -77.03500107 -1.02724588 -59.57421875 -9.125 C-40.37177473 -16.88055021 -16.21799644 -11.99391752 0 0 Z " fill="#0C0C0E" transform="translate(449,118)"/>
<path d="M0 0 C8.188125 -0.020625 16.37625 -0.04125 24.8125 -0.0625 C28.65612183 -0.07615601 28.65612183 -0.07615601 32.57739258 -0.09008789 C34.64143827 -0.09301248 36.70548455 -0.09555975 38.76953125 -0.09765625 C40.33689026 -0.1053302 40.33689026 -0.1053302 41.93591309 -0.11315918 C56.56902308 -0.11486925 69.37336185 1.15532887 81.03125 10.93359375 C90.62334148 21.00148342 92.48878857 35.00320698 92.29296875 48.328125 C92.28872391 49.44314392 92.28447906 50.55816284 92.28010559 51.70697021 C92.26349235 55.22157326 92.22587342 58.73557421 92.1875 62.25 C92.17243072 64.65233539 92.15874627 67.05467989 92.14648438 69.45703125 C92.11621488 75.30509852 92.05745964 81.15188604 92 87 C83.75 87 75.5 87 67 87 C66.97421875 83.6278125 66.9484375 80.255625 66.921875 76.78125 C66.88340992 73.4979637 66.8382639 70.21483207 66.79248047 66.93164062 C66.7643384 64.65827884 66.74309039 62.38482045 66.72900391 60.11132812 C66.70748118 56.8341347 66.66078115 53.55809469 66.609375 50.28125 C66.60814636 49.27259888 66.60691772 48.26394775 66.60565186 47.22473145 C66.47917201 41.06455567 65.68093933 36.08217168 62 31 C50.65002195 21.966344 42.03080535 25.60824305 25 25 C25 45.46 25 65.92 25 87 C16.75 87 8.5 87 0 87 C0 58.29 0 29.58 0 0 Z " fill="#0C0C0E" transform="translate(666,142)"/>
<path d="M0 0 C9.24 0 18.48 0 28 0 C29.876875 3.42375 31.75375 6.8475 33.6875 10.375 C34.26846436 11.43251465 34.84942871 12.4900293 35.44799805 13.57958984 C38.76978572 19.65497208 41.95264336 25.78240255 45 32 C48.08184852 29.34648018 49.65788077 26.18808336 51.5390625 22.6171875 C51.86538666 22.00231476 52.19171082 21.38744202 52.52792358 20.75393677 C53.56545954 18.79697782 54.5955598 16.8362279 55.625 14.875 C56.66283979 12.90732873 57.7022179 10.94049178 58.74349976 8.97463989 C59.68443494 7.1967856 60.62088812 5.41656137 61.55712891 3.63623047 C63 1 63 1 64 0 C65.99964982 -0.08758003 68.0023611 -0.10696576 70.00390625 -0.09765625 C71.21884766 -0.09443359 72.43378906 -0.09121094 73.68554688 -0.08789062 C74.96494141 -0.07951172 76.24433594 -0.07113281 77.5625 -0.0625 C78.84576172 -0.05798828 80.12902344 -0.05347656 81.45117188 -0.04882812 C84.63416022 -0.03699545 87.81705762 -0.02051068 91 0 C90.38901816 4.2927942 88.85818185 7.49890309 86.796875 11.296875 C86.47720764 11.88994446 86.15754028 12.48301392 85.82818604 13.09405518 C84.80822186 14.98274682 83.77924426 16.8663526 82.75 18.75 C82.07362947 19.99968124 81.39784284 21.24967869 80.72265625 22.5 C80.06005886 23.7240466 79.39730057 24.94800611 78.734375 26.171875 C78.41255249 26.76697876 78.09072998 27.36208252 77.75915527 27.97521973 C76.33562605 30.59551324 74.88670662 33.190988 73.36523438 35.75585938 C72.89923828 36.54283203 72.43324219 37.32980469 71.953125 38.140625 C71.34452637 39.1311084 71.34452637 39.1311084 70.72363281 40.14160156 C69.76840878 42.59476125 70.07159604 43.54567647 71 46 C71.92911238 47.97872397 72.90681168 49.93488553 73.9140625 51.875 C74.80931641 53.60169922 74.80931641 53.60169922 75.72265625 55.36328125 C76.03605957 55.96221191 76.34946289 56.56114258 76.67236328 57.17822266 C77.60599399 58.96365381 78.53159935 60.75327422 79.45703125 62.54296875 C83.01933597 69.38654348 86.73612359 76.07128035 90.72802734 82.671875 C92 85 92 85 92 87 C82.76 87 73.52 87 64 87 C58 76 52 65 46 54 C41.54223941 61.21361259 37.50842414 68.58903435 33.625 76.125 C31.76875 79.71375 29.9125 83.3025 28 87 C18.76 87 9.52 87 0 87 C1.43202058 82.70393827 2.76529299 79.26635722 4.828125 75.33203125 C5.38113281 74.27306641 5.93414063 73.21410156 6.50390625 72.12304688 C7.36822266 70.48432617 7.36822266 70.48432617 8.25 68.8125 C8.81074219 67.73935547 9.37148438 66.66621094 9.94921875 65.56054688 C10.50738281 64.49513672 11.06554687 63.42972656 11.640625 62.33203125 C12.19298828 61.27709473 12.74535156 60.2221582 13.31445312 59.13525391 C14.43835054 57.04471356 15.59888263 54.97346044 16.79492188 52.92333984 C17.35244141 51.96250488 17.90996094 51.00166992 18.484375 50.01171875 C18.99194336 49.16440186 19.49951172 48.31708496 20.02246094 47.4440918 C21.24463911 44.38834113 21.0206248 43.10747237 20 40 C19.07790661 37.96859665 18.0873933 35.9676093 17.05078125 33.9921875 C16.44943359 32.83976562 15.84808594 31.68734375 15.22851562 30.5 C14.589913 29.29163007 13.95124082 28.08329689 13.3125 26.875 C12.6928031 25.690395 12.07365777 24.50550129 11.45507812 23.3203125 C8.07483603 16.86810065 4.62706377 10.46218622 1.05541992 4.11376953 C0 2 0 2 0 0 Z " fill="#0C0C0D" transform="translate(806,142)"/>
<path d="M0 0 C0 0.66 0 1.32 0 2 C1.175625 2.37125 1.175625 2.37125 2.375 2.75 C5 4 5 4 6.3125 5.75 C7.24013137 8.78588449 7.44356634 10.83166896 7 14 C6.18144531 14.87785156 5.36289063 15.75570312 4.51953125 16.66015625 C1.27744986 20.38713724 1.25836184 23.77534411 1.25 28.5625 C1.14645948 33.14615934 0.98104081 37.50583837 0 42 C0.61407715 41.98428955 1.2281543 41.9685791 1.86083984 41.95239258 C4.69879589 41.88923806 7.53660333 41.85075823 10.375 41.8125 C11.34050781 41.78736328 12.30601562 41.76222656 13.30078125 41.73632812 C21.15806345 41.65722797 28.3519146 42.56794307 35 47 C35 47.66 35 48.32 35 49 C35.72316406 49.25007813 36.44632812 49.50015625 37.19140625 49.7578125 C46.86782733 54.03750917 52.21128701 62.51541781 56 72 C56.34836914 72.85843506 56.69673828 73.71687012 57.05566406 74.60131836 C58.25146373 78.90502239 58.28702339 82.82954607 58.265625 87.2734375 C58.26753845 88.15601227 58.2694519 89.03858704 58.27142334 89.94790649 C58.2727798 91.80869839 58.26912115 93.66949992 58.26074219 95.53027344 C58.25006063 98.35894352 58.26064263 101.18697485 58.2734375 104.015625 C58.27211531 105.83073055 58.26955169 107.64583571 58.265625 109.4609375 C58.26967346 110.29764984 58.27372192 111.13436218 58.27789307 111.99642944 C58.18589411 123.68367751 54.04518153 135.60784122 45.9609375 144.26953125 C34.30358757 154.55679424 34.30358757 154.55679424 27.21484375 155.5078125 C26.15394531 155.67023438 25.09304687 155.83265625 24 156 C23.34 157.32 22.68 158.64 22 160 C3.19 160 -15.62 160 -35 160 C-35.33 158.68 -35.66 157.36 -36 156 C-37.299375 155.79375 -38.59875 155.5875 -39.9375 155.375 C-49.91142918 153.09613668 -57.04209734 146.02870766 -63 138 C-68.32532909 128.8005264 -70.29939952 119.35916612 -70.37109375 108.828125 C-70.38012222 107.98384949 -70.3891507 107.13957397 -70.39845276 106.26971436 C-70.41285985 104.49494925 -70.42181801 102.72013218 -70.42553711 100.9453125 C-70.4374117 98.26989542 -70.48667148 95.59680582 -70.53710938 92.921875 C-70.66787876 79.05758215 -68.58047346 67.68954305 -59 57 C-58.21496094 56.07767578 -58.21496094 56.07767578 -57.4140625 55.13671875 C-53.47951706 50.8234964 -49.33497135 48.36127092 -44.0390625 45.9453125 C-42.05103405 45.16573745 -42.05103405 45.16573745 -41 44 C-34.48665306 42.91190583 -28.09062403 42.88128077 -21.5 42.9375 C-20.48679688 42.94201172 -19.47359375 42.94652344 -18.4296875 42.95117188 C-15.95306173 42.96285407 -13.47656343 42.97923418 -11 43 C-10.91267274 39.10430865 -10.85949815 35.20887018 -10.8125 31.3125 C-10.78736328 30.20970703 -10.76222656 29.10691406 -10.73632812 27.97070312 C-10.72182617 26.3706543 -10.72182617 26.3706543 -10.70703125 24.73828125 C-10.6913208 23.75899658 -10.67561035 22.77971191 -10.65942383 21.77075195 C-11.05889707 18.52084386 -12.25696339 16.73641917 -14 14 C-15.03959827 7.45053092 -15.03959827 7.45053092 -12.67578125 4.15234375 C-8.63847115 0.31463101 -5.67787363 -0.69524983 0 0 Z M-54.625 65.828125 C-61.77162245 74.93156074 -61.50196001 85.26939496 -61.44604492 96.25512695 C-61.43755324 98.79656548 -61.46632777 101.33573665 -61.49804688 103.87695312 C-61.55754565 117.42875281 -59.83381219 128.88522174 -50 139 C-41.35842739 147.04195329 -32.3232498 148.46272082 -20.80859375 148.3984375 C-19.66391129 148.40130768 -18.51922882 148.40417786 -17.33985901 148.40713501 C-14.93205263 148.40916696 -12.52422942 148.40369831 -10.11645508 148.39111328 C-6.44509793 148.37503328 -2.77483911 148.39100024 0.89648438 148.41015625 C3.24479408 148.40817395 5.5931031 148.40433056 7.94140625 148.3984375 C9.03119278 148.40451019 10.12097931 148.41058289 11.24378967 148.4168396 C21.94122937 148.31876359 32.06692956 144.89503794 39.828125 137.18359375 C46.11602677 129.32371654 49.14161812 119.93646877 49.23828125 110 C49.25038887 108.81361938 49.25038887 108.81361938 49.26274109 107.60327148 C49.27657212 105.92547792 49.28729867 104.24765634 49.29516602 102.56982422 C49.30662597 100.87084587 49.32698172 99.17190179 49.35668945 97.47314453 C49.5737091 85.05574107 49.08701383 74.01864302 40.90234375 63.91796875 C32.74952881 55.69819024 25.04715869 51.80372274 13.54733276 51.69645691 C12.45663483 51.69736832 11.36593689 51.69827972 10.2421875 51.69921875 C9.10274689 51.69493362 7.96330627 51.6906485 6.78933716 51.68623352 C4.38039818 51.68049947 1.97144189 51.67998313 -0.4375 51.68432617 C-4.09145344 51.68747113 -7.74458493 51.6640664 -11.3984375 51.63867188 C-13.74739482 51.63639705 -16.0963543 51.63569623 -18.4453125 51.63671875 C-20.06314133 51.62290413 -20.06314133 51.62290413 -21.71365356 51.60881042 C-36.19503705 51.6954737 -45.00309494 55.00348181 -54.625 65.828125 Z " fill="#676EE5" transform="translate(199,69)"/>
<path d="M0 0 C8.25 0 16.5 0 25 0 C25.99 2.97 26.98 5.94 28 9 C30.60898518 13.76814532 33.00030388 16.75875691 38 19 C45.41118865 19.96237523 52.31865401 20.15996906 58.453125 15.48046875 C63.48146997 10.66798707 64.26233656 6.95065378 66 0 C74.25 0 82.5 0 91 0 C89.78977906 14.52265125 85.63703656 25.25516506 75.0546875 35.3671875 C62.95047223 44.98612663 49.92808034 46.45048992 35 45 C23.28741104 42.16611295 14.12485202 34.4896316 7 25 C2.00017983 16.72181674 0 9.77286927 0 0 Z " fill="#0D0D0E" transform="translate(567,230)"/>
<path d="M0 0 C1.19499115 -0.02236725 2.3899823 -0.0447345 3.6211853 -0.06777954 C4.89942169 -0.07425507 6.17765808 -0.08073059 7.49462891 -0.08740234 C8.83452613 -0.0996007 10.17442075 -0.11208726 11.51431274 -0.12484741 C14.31673278 -0.14725868 17.11888216 -0.1568706 19.92138672 -0.15917969 C23.49514728 -0.16446076 27.06662878 -0.21579939 30.63977623 -0.27869606 C33.40583972 -0.3197583 36.17136139 -0.3288233 38.93770218 -0.32929611 C40.88977927 -0.33723022 42.84164024 -0.37744197 44.79330444 -0.41836548 C50.876536 -0.37200879 54.91739809 -0.17324153 59.65332031 3.87597656 C64.18620358 8.51383202 64.18849219 12.03242828 64.12744141 18.39697266 C63.71754824 22.84886792 62.60884007 24.9423497 59.84619141 28.45166016 C56.01779042 31.27013444 53.29051625 31.8324015 48.57470703 31.85571289 C47.32991577 31.86839706 46.08512451 31.88108124 44.8026123 31.89414978 C43.45255364 31.89209834 42.10249612 31.88911032 40.75244141 31.88525391 C39.35908758 31.88981825 37.96573601 31.89512458 36.5723877 31.90113831 C33.65721469 31.91005698 30.74231583 31.9076602 27.82714844 31.89770508 C24.09785139 31.8862084 20.36950027 31.9064424 16.64032745 31.93562222 C13.76460803 31.95399726 10.88911486 31.95368942 8.01335144 31.9479847 C6.63867362 31.94783168 5.26398027 31.95385965 3.88935852 31.96627617 C1.96551741 31.98120834 0.04152021 31.96786755 -1.88232422 31.95336914 C-2.97532837 31.95320297 -4.06833252 31.9530368 -5.19445801 31.9528656 C-9.84232222 31.16568788 -12.2633963 28.67981505 -14.96630859 24.95166016 C-17.13617501 18.5562644 -17.34986549 12.07378489 -14.52880859 5.88916016 C-10.25900014 1.50698832 -6.0368597 0.08338926 0 0 Z " fill="#0C0F22" transform="translate(169.15380859375,144.54833984375)"/>
<path d="M0 0 C8.25 0 16.5 0 25 0 C25 28.71 25 57.42 25 87 C16.75 87 8.5 87 0 87 C0 58.29 0 29.58 0 0 Z " fill="#0E0E0F" transform="translate(769,142)"/>
<path d="M0 0 C5.11327957 3.64926689 8.50000916 7.98100074 9.671875 14.21484375 C10.12877447 19.464327 9.62108371 23.76236423 7.29296875 28.51171875 C2.4427091 34.10817219 -1.59971312 37.50611648 -9.14453125 38.44921875 C-14.72647314 38.63927226 -18.70764734 37.7602242 -23.14453125 34.32421875 C-27.93284317 29.84927803 -31.24187265 24.55963413 -31.58203125 17.94921875 C-31.3496752 12.18872494 -29.43381994 7.77082823 -25.49609375 3.5625 C-17.92302581 -3.26648921 -9.15950216 -5.21049524 0 0 Z " fill="#FAFAFA" transform="translate(623.14453125,167.67578125)"/>
<path d="M0 0 C6.28746799 2.58843055 10.89692501 5.92876632 14 12 C15.95557511 17.86672532 16.00552037 24.59505704 13.5 30.3125 C10.76012482 35.06814049 6.2239329 38.99290477 0.94921875 40.640625 C-5.85976948 41.89598956 -11.22529826 40.66002223 -17 37 C-21.74414558 32.68070328 -24.57154076 29.13006611 -25.23828125 22.703125 C-25.42106227 16.66173143 -24.9015097 11.80740113 -21 7 C-14.30448061 1.54130835 -8.70802785 -1.27345811 0 0 Z " fill="#FBFBFB" transform="translate(519,165)"/>
<path d="M0 0 C1.22792267 -0.00637985 2.45584534 -0.0127597 3.72097778 -0.01933289 C5.03363617 -0.02044571 6.34629456 -0.02155853 7.69873047 -0.02270508 C9.0706282 -0.0259218 10.44252559 -0.02928618 11.81442261 -0.03279114 C14.68065182 -0.03875939 17.54685096 -0.04063323 20.41308594 -0.04003906 C24.0827622 -0.03993714 27.75224629 -0.05363064 31.42187691 -0.07081127 C34.25117885 -0.08193159 37.08043415 -0.08395832 39.90975571 -0.08342934 C41.91943545 -0.08517957 43.92910064 -0.09601233 45.93875122 -0.10697937 C47.16036957 -0.10390274 48.38198792 -0.10082611 49.640625 -0.09765625 C51.2522905 -0.09979378 51.2522905 -0.09979378 52.89651489 -0.10197449 C57.84924111 0.3362239 60.21355962 2.39614993 63.37841797 6.08276367 C63.98041016 6.77241211 64.58240234 7.46206055 65.20263672 8.17260742 C69.42316216 13.76674219 68.36540198 22.49210099 67.69091797 29.14526367 C66.30257952 32.62891735 64.60556449 34.8124589 61.69091797 37.14526367 C60.96940048 37.75734428 60.96940048 37.75734428 60.23330688 38.38179016 C53.76293513 43.1935038 47.37183493 42.83785785 39.55810547 42.73901367 C38.19385891 42.73729935 36.82960905 42.73737151 35.46536255 42.73913574 C32.61916183 42.73749006 29.77375598 42.71892937 26.92773438 42.68725586 C23.2917359 42.64750369 19.65677215 42.64322388 16.02059746 42.65071869 C13.20828888 42.65379681 10.39621011 42.64163944 7.58395767 42.62458801 C5.5954546 42.61420862 3.60690782 42.61371139 1.61837769 42.61340332 C0.40336578 42.59749146 -0.81164612 42.58157959 -2.06347656 42.56518555 C-3.65943161 42.55255676 -3.65943161 42.55255676 -5.28762817 42.53967285 C-11.93696464 41.67169357 -15.74265382 38.15031764 -19.82861328 33.18041992 C-23.77639034 27.75352851 -24.10412102 21.64646854 -23.30908203 15.14526367 C-21.54570357 9.16878337 -17.74454068 4.24970547 -12.30908203 1.14526367 C-8.16813469 0.29335304 -4.22141755 0.01495415 0 0 Z M-15.68408203 10.58276367 C-18.2570964 16.22360287 -18.58100225 22.44631202 -16.54345703 28.37182617 C-14.71051789 31.79040315 -12.61217967 34.17206039 -9.30908203 36.14526367 C-6.39917632 36.59873612 -6.39917632 36.59873612 -3.15112305 36.53344727 C-1.90625626 36.54290375 -0.66138947 36.55236023 0.62120056 36.56210327 C1.97647419 36.5567328 3.33174491 36.55057966 4.68701172 36.54370117 C6.08179374 36.54572315 7.47657474 36.54863562 8.87135315 36.55239868 C11.7925118 36.55681772 14.71339491 36.55040584 17.63452148 36.53637695 C21.37156124 36.51930078 25.10795383 36.52911832 28.84496975 36.54709435 C31.72496884 36.55795735 34.60481563 36.55447413 37.48481941 36.54671097 C38.86227559 36.54471507 40.23974577 36.54714676 41.61718559 36.55414963 C43.54597571 36.56180285 45.47481452 36.54806178 47.40356445 36.53344727 C49.04759499 36.5298671 49.04759499 36.5298671 50.72483826 36.5262146 C55.58523393 35.90196562 58.01387784 34.00528762 61.00341797 30.20776367 C63.60932773 25.12516282 63.81082293 19.67891171 62.69091797 14.14526367 C60.42262335 10.35102541 57.68292478 7.14126708 53.69091797 5.14526367 C51.78265209 5.03874224 49.87066972 4.99642886 47.95947266 4.98413086 C46.15684967 4.96971954 46.15684967 4.96971954 44.31781006 4.95501709 C43.01265442 4.95076721 41.70749878 4.94651733 40.36279297 4.94213867 C39.01239012 4.93638561 37.66198729 4.93062789 36.31158447 4.92486572 C33.47692484 4.91435397 30.64229357 4.90851304 27.80761719 4.9050293 C24.18501902 4.89955633 20.56279896 4.87555526 16.94031906 4.84705734 C14.14867075 4.82837726 11.35711232 4.82322244 8.5654068 4.82169342 C6.58349756 4.81721372 4.60163653 4.79858926 2.61981201 4.77972412 C0.79827606 4.78422577 0.79827606 4.78422577 -1.06005859 4.78881836 C-2.65651215 4.78334991 -2.65651215 4.78334991 -4.28521729 4.777771 C-9.08758451 5.36140649 -12.33100084 7.1414435 -15.68408203 10.58276367 Z " fill="#6567CD" transform="translate(170.30908203125,139.854736328125)"/>
<path d="M0 0 C0.90603973 0.00404846 1.81207947 0.00809692 2.74557495 0.01226807 C3.69850433 0.00876343 4.65143372 0.00525879 5.63323975 0.00164795 C8.79445605 -0.0071804 11.95544997 -0.00131629 15.1166687 0.00543213 C17.30620365 0.0040858 19.4957383 0.00214553 21.68527222 -0.00036621 C26.27864421 -0.00331897 30.87193853 0.00098507 35.46530151 0.01031494 C41.36382733 0.02170952 47.26217117 0.01515086 53.16069031 0.00317001 C57.68329244 -0.00404447 62.20585117 -0.00176255 66.72845459 0.0034256 C68.9038495 0.00476324 71.07924831 0.00311041 73.25463867 -0.00153351 C76.29078668 -0.00659196 79.32663673 0.00110195 82.36276245 0.01226807 C83.26880219 0.0082196 84.17484192 0.00417114 85.1083374 0 C91.32564123 0.04252965 91.32564123 0.04252965 93.5541687 2.27105713 C93.8666687 4.70855713 93.8666687 4.70855713 93.5541687 7.27105713 C92.03980234 9.22155113 91.14061125 10.15202912 88.69413757 10.64858055 C87.9928624 10.64971163 87.29158722 10.6508427 86.56906128 10.65200806 C85.76151398 10.66046753 84.95396667 10.668927 84.12194824 10.67764282 C83.23977631 10.67157013 82.35760437 10.66549744 81.44869995 10.65924072 C80.05075699 10.66712616 80.05075699 10.66712616 78.62457275 10.6751709 C75.53843515 10.68839408 72.45281172 10.67962452 69.3666687 10.66949463 C67.22579855 10.67151469 65.08492907 10.67442557 62.94406128 10.67819214 C58.45498103 10.68261864 53.96607973 10.67617386 49.47702026 10.66217041 C43.7164231 10.64507846 37.95624522 10.65491788 32.19566345 10.6728878 C27.77422921 10.68371677 23.35289473 10.68028335 18.93145752 10.67250443 C16.8071284 10.67049997 14.6827903 10.67297027 12.55847168 10.67994308 C9.59194872 10.68754288 6.62610936 10.67597383 3.65963745 10.65924072 C2.33637955 10.66834976 2.33637955 10.66834976 0.98638916 10.67764282 C-0.22493179 10.66495361 -0.22493179 10.66495361 -1.46072388 10.65200806 C-2.16199905 10.65087698 -2.86327423 10.6497459 -3.58580017 10.64858055 C-6.03227385 10.15202912 -6.93146494 9.22155113 -8.4458313 7.27105713 C-8.7583313 4.70855713 -8.7583313 4.70855713 -8.4458313 2.27105713 C-5.75058902 -0.42418515 -3.6623687 0.02505254 0 0 Z " fill="#89A7EA" transform="translate(150.44583129882813,239.72894287109375)"/>
<path d="M0 0 C1.41194558 0.00171308 2.82389433 0.00164342 4.23583984 -0.00012207 C7.18813712 0.00152729 10.1396715 0.02015234 13.09179688 0.05175781 C16.86460525 0.09143517 20.63641586 0.09580084 24.40939331 0.08829498 C27.32292727 0.08521659 30.23623945 0.09737644 33.14971924 0.11442566 C34.54028939 0.1214268 35.93088466 0.12458371 37.32147217 0.12373352 C39.26907302 0.12554323 41.21661572 0.14926428 43.1640625 0.17382812 C44.26959473 0.18224731 45.37512695 0.1906665 46.51416016 0.19934082 C51.27811812 0.8033413 54.55942656 2.52817656 57.9375 5.90625 C59.93260515 9.08363968 60.35206586 10.84090558 60.625 14.59375 C60.72296875 15.50769531 60.8209375 16.42164063 60.921875 17.36328125 C61.29979456 23.14108991 61.17115696 26.77271397 57.3125 31.28125 C53.26034942 35.38437103 49.98345643 35.72516604 44.33691406 35.81835938 C42.38909027 35.85213684 42.38909027 35.85213684 40.4019165 35.88659668 C34.46308539 35.96239 28.52414181 36.01527841 22.58496094 36.05371094 C19.45159086 36.07598069 16.31941297 36.11774231 13.18652344 36.17675781 C9.39629956 36.24800489 5.60719666 36.28456441 1.81633759 36.29682922 C0.37620131 36.30720194 -1.06390293 36.32956078 -2.50365448 36.36442566 C-13.68372291 36.62115572 -13.68372291 36.62115572 -17.78918457 34.12719727 C-21.51066645 30.54468196 -24.13346108 26.76760032 -24.7109375 21.5703125 C-24.84233729 10.29621031 -24.84233729 10.29621031 -20.375 5.59375 C-19.6325 4.72943359 -18.89 3.86511719 -18.125 2.97460938 C-13.06310584 -1.15725182 -6.18451062 -0.07940424 0 0 Z M-19.75 8.03125 C-22.32301437 13.6720892 -22.64692022 19.89479835 -20.609375 25.8203125 C-18.77643586 29.23888947 -16.67809764 31.62054672 -13.375 33.59375 C-10.46509429 34.04722245 -10.46509429 34.04722245 -7.21704102 33.98193359 C-5.97217422 33.99139008 -4.72730743 34.00084656 -3.44471741 34.0105896 C-2.08944378 34.00521913 -0.73417306 33.99906599 0.62109375 33.9921875 C2.01587577 33.99420948 3.41065677 33.99712195 4.80543518 34.00088501 C7.72659383 34.00530405 10.64747694 33.99889217 13.56860352 33.98486328 C17.30564327 33.96778711 21.04203586 33.97760465 24.77905178 33.99558067 C27.65905087 34.00644368 30.53889766 34.00296045 33.41890144 33.9951973 C34.79635762 33.9932014 36.1738278 33.99563308 37.55126762 34.00263596 C39.48005774 34.01028918 41.40889655 33.99654811 43.33764648 33.98193359 C44.98167702 33.97835342 44.98167702 33.97835342 46.65892029 33.97470093 C51.51931596 33.35045195 53.94795987 31.45377395 56.9375 27.65625 C59.54340976 22.57364915 59.74490496 17.12739804 58.625 11.59375 C56.35670539 7.79951174 53.61700682 4.58975341 49.625 2.59375 C47.71673413 2.48722857 45.80475175 2.44491519 43.89355469 2.43261719 C42.0909317 2.41820587 42.0909317 2.41820587 40.25189209 2.40350342 C38.94673645 2.39925354 37.64158081 2.39500366 36.296875 2.390625 C34.94647215 2.38487193 33.59606932 2.37911422 32.2456665 2.37335205 C29.41100687 2.3628403 26.5763756 2.35699937 23.74169922 2.35351562 C20.11910105 2.34804266 16.49688099 2.32404159 12.87440109 2.29554367 C10.08275278 2.27686359 7.29119435 2.27170877 4.49948883 2.27017975 C2.51757959 2.26570005 0.53571856 2.24707559 -1.44610596 2.22821045 C-3.26764191 2.2327121 -3.26764191 2.2327121 -5.12597656 2.23730469 C-6.72243011 2.23183624 -6.72243011 2.23183624 -8.35113525 2.22625732 C-13.15350248 2.80989281 -16.39691881 4.58992983 -19.75 8.03125 Z " fill="#494EAD" transform="translate(174.375,142.40625)"/>
<path d="M0 0 C10.56 0 21.12 0 32 0 C30.48863933 3.77840168 29.01852498 6.85129635 26.9609375 10.30078125 C26.38085938 11.27724609 25.80078125 12.25371094 25.203125 13.25976562 C24.59984375 14.26716797 23.9965625 15.27457031 23.375 16.3125 C22.76398437 17.33923828 22.15296875 18.36597656 21.5234375 19.42382812 C20.01880606 21.95113875 18.5109006 24.47643399 17 27 C13.83422993 23.19388099 11.13470231 19.23935741 8.5 15.0625 C7.74008397 13.86556742 6.97967128 12.66895002 6.21875 11.47265625 C5.85265625 10.89402832 5.4865625 10.31540039 5.109375 9.71923828 C4.01097632 8.01701039 2.86867413 6.35128742 1.71875 4.68359375 C0 2 0 2 0 0 Z " fill="#141416" transform="translate(766,107)"/>
<path d="M0 0 C10.23 0 20.46 0 31 0 C29.55198278 4.34405166 28.46925664 7.20994125 26.1796875 10.9609375 C25.64472656 11.84394531 25.10976563 12.72695312 24.55859375 13.63671875 C24.00300781 14.54035156 23.44742188 15.44398437 22.875 16.375 C22.31167969 17.30183594 21.74835937 18.22867188 21.16796875 19.18359375 C19.78393957 21.45903155 18.39451078 23.7309763 17 26 C14.06134962 23.23653532 11.87487615 20.48431762 9.765625 17.05078125 C9.19199219 16.12072266 8.61835937 15.19066406 8.02734375 14.23242188 C7.44082031 13.26884766 6.85429688 12.30527344 6.25 11.3125 C5.64800781 10.33732422 5.04601562 9.36214844 4.42578125 8.35742188 C0 1.14671025 0 1.14671025 0 0 Z " fill="#0C0C0E" transform="translate(596,111)"/>
<path d="M0 0 C0 0.66 0 1.32 0 2 C0.78375 2.2475 1.5675 2.495 2.375 2.75 C5 4 5 4 6.3125 5.75 C7.24013137 8.78588449 7.44356634 10.83166896 7 14 C5.77216797 15.31677734 5.77216797 15.31677734 4.51953125 16.66015625 C1.27744986 20.38713724 1.25836184 23.77534411 1.25 28.5625 C1.14645948 33.14615934 0.98104081 37.50583837 0 42 C0.61407715 41.98428955 1.2281543 41.9685791 1.86083984 41.95239258 C4.69879589 41.88923806 7.53660333 41.85075823 10.375 41.8125 C11.82326172 41.77479492 11.82326172 41.77479492 13.30078125 41.73632812 C19.86650311 41.67023025 25.94488333 42.27338553 32 45 C32.33 45.66 32.66 46.32 33 47 C32.22140625 46.79503906 31.4428125 46.59007812 30.640625 46.37890625 C20.10089362 43.84111379 9.80296891 43.31517716 -1 43 C-1.12886183 35.59760355 -0.79725902 28.36040917 0 21 C-1.216875 21.103125 -2.43375 21.20625 -3.6875 21.3125 C-7.36567343 21.33206475 -7.87734417 21.09916854 -10.9375 18.625 C-13.72619079 15.07575717 -14.53140214 12.70833898 -14.47265625 8.109375 C-13.70740433 4.69420116 -11.74753153 3.11165646 -9.0234375 1.0546875 C-5.96984835 -0.53695163 -3.35534712 -0.41085883 0 0 Z " fill="#67B4D8" transform="translate(199,69)"/>
<path d="M0 0 C3.46145669 0.86536417 4.94931405 2.62635769 6.9375 5.484375 C7.49613973 9.39485311 7.19318922 12.21362564 4.9375 15.484375 C2.62040035 17.80147465 1.25173899 18.43088751 -2 18.984375 C-6.07353263 18.31930845 -7.46513771 16.60120975 -10.0625 13.484375 C-11.50680855 10.59575791 -11.43938506 8.68789799 -11.0625 5.484375 C-7.96567477 1.03268873 -5.27078558 -0.35937174 0 0 Z " fill="#66CAE4" transform="translate(218.0625,189.515625)"/>
<path d="M0 0 C3 2.5625 3 2.5625 5 6 C5.15587894 10.44254965 4.46541435 12.37501502 1.8125 15.9375 C-1 18 -1 18 -4 18.625 C-7.96333283 17.79930566 -9.44534526 16.06558569 -12 13 C-13.40457737 10.19084526 -13.24895157 8.11189466 -13 5 C-9.98985555 -0.30358783 -5.80003357 -0.70000405 0 0 Z " fill="#66CBE5" transform="translate(174,190)"/>
<path d="M0 0 C1.41194558 0.00171308 2.82389433 0.00164342 4.23583984 -0.00012207 C7.18813712 0.00152729 10.1396715 0.02015234 13.09179688 0.05175781 C16.86460525 0.09143517 20.63641586 0.09580084 24.40939331 0.08829498 C27.32292727 0.08521659 30.23623945 0.09737644 33.14971924 0.11442566 C34.54028939 0.1214268 35.93088466 0.12458371 37.32147217 0.12373352 C39.26907302 0.12554323 41.21661572 0.14926428 43.1640625 0.17382812 C44.26959473 0.18224731 45.37512695 0.1906665 46.51416016 0.19934082 C50.10275953 0.65432295 52.5363067 1.73642144 55.625 3.59375 C56.12 4.58375 56.12 4.58375 56.625 5.59375 C55.75496338 5.26995361 54.88492676 4.94615723 53.98852539 4.61254883 C48.06387892 2.93313825 41.91584246 3.28861795 35.80859375 3.29296875 C34.46533579 3.28907538 33.12207904 3.2847394 31.77882385 3.27998352 C28.97400913 3.27255239 26.16932037 3.2727908 23.36450195 3.27807617 C19.7812479 3.28388058 16.19850911 3.26690194 12.61534023 3.2437315 C9.84512857 3.22896153 7.07504029 3.22812662 4.30479622 3.23124123 C2.34505561 3.23048286 0.38533406 3.21664551 -1.57435608 3.20256042 C-2.77257492 3.20878922 -3.97079376 3.21501801 -5.20532227 3.22143555 C-6.25454361 3.22080612 -7.30376495 3.2201767 -8.38478088 3.2195282 C-12.47498881 3.73141208 -16.03454056 5.06966598 -18.80078125 8.21484375 C-21.71536998 14.18525679 -22.1554018 20.005804 -22.375 26.59375 C-25.11862012 23.85012988 -24.70630133 22.17175386 -24.75 18.34375 C-24.653803 12.88457025 -24.25762627 9.68072503 -20.375 5.59375 C-19.6325 4.72943359 -18.89 3.86511719 -18.125 2.97460938 C-13.06310584 -1.15725182 -6.18451062 -0.07940424 0 0 Z " fill="#544FB7" transform="translate(174.375,142.40625)"/>
<path d="M0 0 C0.66 0.33 1.32 0.66 2 1 C1.401875 1.886875 0.80375 2.77375 0.1875 3.6875 C-0.534375 4.780625 -1.25625 5.87375 -2 7 C-2.79664063 8.14082031 -2.79664063 8.14082031 -3.609375 9.3046875 C-6.15886797 14.24612051 -5.60766833 19.58560692 -5 25 C-2.28370856 30.85047388 2.97578145 35.56944284 9 38 C11.78726096 38.32607313 11.78726096 38.32607313 14.87011719 38.31884766 C16.64150055 38.34865219 16.64150055 38.34865219 18.44866943 38.37905884 C19.71857727 38.39061005 20.98848511 38.40216125 22.296875 38.4140625 C24.25273529 38.44311172 24.25273529 38.44311172 26.24810791 38.4727478 C29.70693936 38.52401083 33.16580966 38.56366744 36.62481689 38.60089111 C40.15752732 38.64096753 43.69007693 38.69204322 47.22265625 38.7421875 C54.14831991 38.83887755 61.07408685 38.92330435 68 39 C68 39.33 68 39.66 68 40 C60.01986193 40.06963738 52.0398517 40.12288062 44.05948448 40.15543652 C40.35351166 40.171065 36.64774736 40.19225119 32.94189453 40.22631836 C29.36275825 40.25901319 25.78382202 40.27687419 22.20454788 40.28463173 C20.84184243 40.29015716 19.47914741 40.30094704 18.11652756 40.31719017 C16.20198069 40.33909636 14.28723075 40.34022653 12.37255859 40.34057617 C11.28445892 40.34723801 10.19635925 40.35389984 9.07528687 40.36076355 C2.38618395 39.5760613 -1.42238399 36.01866207 -5.51953125 31.03515625 C-9.45936706 25.61918142 -9.81268133 19.49141753 -9 13 C-7.2447862 7.54460576 -4.23425226 3.76377978 0 0 Z " fill="#6E6BC1" transform="translate(156,142)"/>
<path d="M0 0 C-0.66 1.32 -1.32 2.64 -2 4 C-20.81 4 -39.62 4 -59 4 C-59.33 3.01 -59.66 2.02 -60 1 C-52.41944823 0.85679914 -44.83888038 0.71447401 -37.25830078 0.57275391 C-34.680172 0.52445249 -32.10204696 0.47595157 -29.52392578 0.42724609 C-25.81543935 0.35722072 -22.10694005 0.28791588 -18.3984375 0.21875 C-16.67311295 0.18593933 -16.67311295 0.18593933 -14.91293335 0.15246582 C-13.83226593 0.13244507 -12.75159851 0.11242432 -11.63818359 0.09179688 C-10.2192128 0.06514954 -10.2192128 0.06514954 -8.77157593 0.03796387 C-5.84738155 -0.0020905 -2.92443178 -0.00633716 0 0 Z " fill="#708CE6" transform="translate(223,225)"/>
<path d="M0 0 C0.33 1.65 0.66 3.3 1 5 C-2.00727383 7.48241943 -4.8262345 8.84321918 -8.5 10.125 C-9.90765625 10.62386719 -9.90765625 10.62386719 -11.34375 11.1328125 C-13.55337355 11.8541896 -15.7368377 12.4769106 -18 13 C-18.33 11.02 -18.66 9.04 -19 7 C-18.18015625 6.66226562 -17.3603125 6.32453125 -16.515625 5.9765625 C-15.43796875 5.53054688 -14.3603125 5.08453125 -13.25 4.625 C-11.64898437 3.96371094 -11.64898437 3.96371094 -10.015625 3.2890625 C-7.10141841 2.09211953 -7.10141841 2.09211953 -4.796875 0.8359375 C-3 0 -3 0 0 0 Z " fill="#CBC2F7" transform="translate(243,263)"/>
<path d="M0 0 C1.98 0 3.96 0 6 0 C6.33 6.6 6.66 13.2 7 20 C5.02 20 3.04 20 1 20 C-0.03026944 13.30324864 -0.10152799 6.7685324 0 0 Z " fill="#B9D2F0" transform="translate(81,164)"/>
<path d="M0 0 C0.67668949 2.20528272 1.34093498 4.41438609 2 6.625 C2.37125 7.85476562 2.7425 9.08453125 3.125 10.3515625 C3.93727719 13.73846826 4.17041013 16.53854429 4 20 C2.35 20 0.7 20 -1 20 C-3.13361554 16.4439741 -3.43901677 13.0671284 -4 9 C-4.64389782 6.99255385 -5.30562253 4.99054876 -6 3 C-6 2.34 -6 1.68 -6 1 C-3 0 -3 0 0 0 Z " fill="#C6C0F6" transform="translate(298,129)"/>
<path d="M0 0 C2.51564471 1.11806432 4.35798767 2.29533983 6.5 4.0625 C8.82767647 5.86644927 10.1441791 6.57691542 13 7 C13 7.66 13 8.32 13 9 C14.32 9.33 15.64 9.66 17 10 C16.34 11.65 15.68 13.3 15 15 C10.31812124 13.68018255 6.99625079 11.80204328 3.125 8.875 C2.15820312 8.15054687 1.19140625 7.42609375 0.1953125 6.6796875 C-0.52914062 6.12539063 -1.25359375 5.57109375 -2 5 C-1.34 3.35 -0.68 1.7 0 0 Z " fill="#C0BFF5" transform="translate(126,252)"/>
<path d="M0 0 C1.98 0 3.96 0 6 0 C4.28571429 15.71428571 4.28571429 15.71428571 1 19 C-1.125 18.625 -1.125 18.625 -3 18 C-2.69112547 15.56199034 -2.37805338 13.12464633 -2.0625 10.6875 C-1.97548828 9.99720703 -1.88847656 9.30691406 -1.79882812 8.59570312 C-1.40789865 5.59857712 -0.9584996 2.87549881 0 0 Z " fill="#C8BFF6" transform="translate(298,182)"/>
<path d="M0 0 C0.66 1.65 1.32 3.3 2 5 C1.24074219 5.54269531 0.48148438 6.08539063 -0.30078125 6.64453125 C-1.29464844 7.35996094 -2.28851563 8.07539062 -3.3125 8.8125 C-4.29863281 9.52019531 -5.28476563 10.22789063 -6.30078125 10.95703125 C-8.93450966 12.83432171 -8.93450966 12.83432171 -10.66796875 14.76171875 C-12 16 -12 16 -15 16 C-15.66 14.35 -16.32 12.7 -17 11 C-15.87851563 10.18595703 -15.87851563 10.18595703 -14.734375 9.35546875 C-13.74953125 8.64003906 -12.7646875 7.92460938 -11.75 7.1875 C-10.77546875 6.47980469 -9.8009375 5.77210937 -8.796875 5.04296875 C-7.09897708 3.80274443 -5.41674819 2.54012838 -3.765625 1.23828125 C-2 0 -2 0 0 0 Z " fill="#B5D6ED" transform="translate(135,74)"/>
<path d="M0 0 C2.625 -0.1875 2.625 -0.1875 5 0 C5 4.93110443 3.94170203 5.59408763 0.625 9.0625 C-1.83890374 11.66328728 -4.00978148 14.01467222 -6 17 C-7.32 16.67 -8.64 16.34 -10 16 C-10 11.25787068 -9.27169729 10.74657135 -6.125 7.4375 C-3.82898159 4.99746609 -1.86425789 2.79638683 0 0 Z " fill="#C6BBF6" transform="translate(279,230)"/>
<path d="M0 0 C0 0.99 0 1.98 0 3 C0.66 3 1.32 3 2 3 C2.84324672 4.578076 3.67423918 6.1627042 4.5 7.75 C4.9640625 8.63171875 5.428125 9.5134375 5.90625 10.421875 C7 13 7 13 7 17 C5.68 17.33 4.36 17.66 3 18 C-6 4.89320388 -6 4.89320388 -6 0 C-3 -1 -3 -1 0 0 Z " fill="#B9C5F3" transform="translate(97,213)"/>
<path d="M0 0 C4.39037321 0.43903732 6.82464331 3.38054039 9.75 6.375 C10.25660156 6.87 10.76320313 7.365 11.28515625 7.875 C15 11.61988292 15 11.61988292 15 15 C13.35 15.33 11.7 15.66 10 16 C9.63648438 15.55269531 9.27296875 15.10539062 8.8984375 14.64453125 C5.5452127 10.61206348 2.12357967 7.23995546 -2 4 C-1.34 2.68 -0.68 1.36 0 0 Z " fill="#C0BFF5" transform="translate(265,86)"/>
<path d="M0 0 C6.48707154 1.6813917 12.7677635 3.53062327 19 6 C18.67 7.65 18.34 9.3 18 11 C13.40814544 11.59249736 10.2111899 9.92014208 6.18359375 7.97265625 C4.12619873 7.05621375 2.19650915 6.47317091 0 6 C0 4.02 0 2.04 0 0 Z " fill="#BAC7F3" transform="translate(218,60)"/>
<path d="M0 0 C1.32 0.33 2.64 0.66 4 1 C4 5.02141168 3.58552941 6.43255883 2 10 C1.66226563 10.76570313 1.32453125 11.53140625 0.9765625 12.3203125 C-0.00894343 14.5499323 -1.00186919 16.7760095 -2 19 C-3.65 19 -5.3 19 -7 19 C-6.67422369 11.83292123 -3.34556372 6.23072876 0 0 Z " fill="#B5D6EE" transform="translate(96,113)"/>
<path d="M0 0 C6.6 0.33 13.2 0.66 20 1 C20 2.65 20 4.3 20 6 C17.60408962 6.02712351 15.20849043 6.0468982 12.8125 6.0625 C12.13896484 6.07087891 11.46542969 6.07925781 10.77148438 6.08789062 C7.04565869 6.10606538 3.6211958 5.89299392 0 5 C0 3.35 0 1.7 0 0 Z " fill="#C3BCF5" transform="translate(173,274)"/>
<path d="M0 0 C0 1.65 0 3.3 0 5 C-3.29960141 6.6498007 -6.99127884 6.38258361 -10.625 6.5625 C-11.42679688 6.60568359 -12.22859375 6.64886719 -13.0546875 6.69335938 C-15.0362511 6.79951457 -17.01810271 6.90026855 -19 7 C-19.33 5.35 -19.66 3.7 -20 2 C-17.2294096 1.66453392 -14.45856036 1.33154158 -11.6875 1 C-10.90181641 0.90460937 -10.11613281 0.80921875 -9.30664062 0.7109375 C-8.54931641 0.62070312 -7.79199219 0.53046875 -7.01171875 0.4375 C-6.31522217 0.35371094 -5.61872559 0.26992188 -4.90112305 0.18359375 C-3 0 -3 0 0 0 Z " fill="#B4D0EF" transform="translate(185,58)"/>
<path d="M0 0 C0.33 0 0.66 0 1 0 C1.09796875 0.80824219 1.1959375 1.61648437 1.296875 2.44921875 C2.31060816 10.54094811 2.31060816 10.54094811 7 17 C7.66 17.66 8.32 18.32 9 19 C6.03339874 18.67037764 4.2634367 18.19471408 1.84375 16.40625 C-0.69314619 13.09538548 -0.40247742 10.86689036 -0.25 6.75 C-0.21390625 5.48671875 -0.1778125 4.2234375 -0.140625 2.921875 C-0.09421875 1.95765625 -0.0478125 0.9934375 0 0 Z " fill="#4D49AA" transform="translate(152,157)"/>
<path d="M0 0 C1.65 0.33 3.3 0.66 5 1 C4.67 2.32 4.34 3.64 4 5 C2.35 4.67 0.7 4.34 -1 4 C-0.67 2.68 -0.34 1.36 0 0 Z " fill="#D2F4FA" transform="translate(216,194)"/>
<path d="M0 0 C2.97 0 5.94 0 9 0 C8.67 0.99 8.34 1.98 8 3 C5.69 3 3.38 3 1 3 C0.67 2.01 0.34 1.02 0 0 Z " fill="#403F84" transform="translate(188,121)"/>
<path d="M0 0 C0.721875 0.12375 1.44375 0.2475 2.1875 0.375 C2.1875 1.695 2.1875 3.015 2.1875 4.375 C1.8575 3.385 1.5275 2.395 1.1875 1.375 C-2.2775 4.345 -2.2775 4.345 -5.8125 7.375 C-6.4725 7.045 -7.1325 6.715 -7.8125 6.375 C-3.50480769 0.46730769 -3.50480769 0.46730769 0 0 Z " fill="#D5CEF8" transform="translate(281.8125,229.625)"/>
<path d="M0 0 C1.98 0.495 1.98 0.495 4 1 C4 2.32 4 3.64 4 5 C2.35 4.67 0.7 4.34 -1 4 C-0.67 2.68 -0.34 1.36 0 0 Z " fill="#DEF8FC" transform="translate(170,194)"/>
</svg>
